<?xml version="1.0" encoding="UTF-8"?>
<svg version="1.1" viewBox="0 0 285.64 421.41" xmlns="http://www.w3.org/2000/svg">
 <defs>
  <clipPath id="bv">
   <path d="m220.41 353.78c0.127 8.395-2.341 8.539-2.341 8.539h-2.786s-2.313-0.227-2.187-8.622l7.314 0.083"/>
  </clipPath>
  <clipPath id="bh">
   <path d="m72.5 499.91h227.51v-336.13h-227.51v336.13z" clip-rule="evenodd"/>
  </clipPath>
  <clipPath id="bi">
   <path d="m0 792h612v-792h-612v792z"/>
  </clipPath>
  <clipPath id="bj">
   <path d="m0.06 792h612v-792h-612v792z"/>
  </clipPath>
  <clipPath id="bg">
   <path d="m211.29 353.78c0.127 8.395-2.341 8.539-2.341 8.539h-2.786s-2.313-0.227-2.187-8.622l7.314 0.083"/>
  </clipPath>
  <clipPath id="bd">
   <path d="m72.5 499.91h227.51v-336.13h-227.51v336.13z" clip-rule="evenodd"/>
  </clipPath>
  <clipPath id="be">
   <path d="m0 792h612v-792h-612v792z"/>
  </clipPath>
  <clipPath id="bf">
   <path d="m0.06 792h612v-792h-612v792z"/>
  </clipPath>
  <clipPath id="bc">
   <path d="m212.4 349.75s1.186 6.305 1.334 13.756-1.104 12.421-1.104 12.421h-1.037s-1.186-4.97-1.038-12.421 1.845-13.756 1.845-13.756"/>
  </clipPath>
  <clipPath id="az">
   <path d="m72.5 499.91h227.51v-336.13h-227.51v336.13z" clip-rule="evenodd"/>
  </clipPath>
  <clipPath id="ba">
   <path d="m0 792h612v-792h-612v792z"/>
  </clipPath>
  <clipPath id="bb">
   <path d="m0.06 792h612v-792h-612v792z"/>
  </clipPath>
  <clipPath id="ay">
   <path d="m204.1 360.99 15.426-0.067-0.162 48.24s0.485 8.94-1.132 23.557c-0.855 7.722-4.009 13.491-6.498 13.7-2.49-0.209-5.482-5.978-6.337-13.7-1.617-14.617-1.132-23.557-1.132-23.557l-0.17-48.17"/>
  </clipPath>
  <clipPath id="av">
   <path d="m72.5 499.91h227.51v-336.13h-227.51v336.13z" clip-rule="evenodd"/>
  </clipPath>
  <clipPath id="aw">
   <path d="m0 792h612v-792h-612v792z"/>
  </clipPath>
  <clipPath id="ax">
   <path d="m0.06 792h612v-792h-612v792z"/>
  </clipPath>
  <clipPath id="au">
   <path d="m204.69 425.61s-2.668-21.73-9.714-32.63-14.484-12.325-15.87-21.872c-0.297-2.043-0.445-4.157-0.445-4.157l25.584-6.117 1.818 63.886-1.373 0.89"/>
  </clipPath>
  <clipPath id="ar">
   <path d="m72.5 499.91h227.51v-336.13h-227.51v336.13z" clip-rule="evenodd"/>
  </clipPath>
  <clipPath id="as">
   <path d="m0 792h612v-792h-612v792z"/>
  </clipPath>
  <clipPath id="at">
   <path d="m0.06 792h612v-792h-612v792z"/>
  </clipPath>
  <clipPath id="aq">
   <path d="m186.9 347.49h13.459l-1.45 5.415s-0.016 91.334-0.016 92.532 0 2.935-0.31 3.962c0 0-2.967 9.407-3.367 10.605-0.399 1.198-0.712 1.565-1.739 1.565s-1.337-0.367-1.736-1.565c-0.4-1.198-3.367-10.605-3.367-10.605-0.31-1.027-0.31-2.764-0.31-3.962v-92.532l-1.164-5.415"/>
  </clipPath>
  <clipPath id="an">
   <path d="m72.5 499.91h227.51v-336.13h-227.51v336.13z" clip-rule="evenodd"/>
  </clipPath>
  <clipPath id="ao">
   <path d="m0 792h612v-792h-612v792z"/>
  </clipPath>
  <clipPath id="ap">
   <path d="m0.06 792h612v-792h-612v792z"/>
  </clipPath>
  <clipPath id="am">
   <path d="m199.47 342.41c-0.748 9.305-3.562 9.457-3.562 9.457h-4.5s-2.612-0.295-3.322-9.457h11.384"/>
  </clipPath>
  <clipPath id="bt">
   <path d="m72.5 499.91h227.51v-336.13h-227.51v336.13z" clip-rule="evenodd"/>
  </clipPath>
  <clipPath id="bu">
   <path d="m0 792h612v-792h-612v792z"/>
  </clipPath>
  <clipPath id="al">
   <path d="m0.06 792h612v-792h-612v792z"/>
  </clipPath>
  <clipPath id="bs">
   <path d="m218.78 425.61s2.669-21.73 9.714-32.63c7.046-10.9 14.485-12.325 15.87-21.872 0.297-2.043 0.445-4.157 0.445-4.157l-25.584-6.117-1.818 63.886 1.373 0.89"/>
  </clipPath>
  <clipPath id="bp">
   <path d="m72.5 499.91h227.51v-336.13h-227.51v336.13z" clip-rule="evenodd"/>
  </clipPath>
  <clipPath id="bq">
   <path d="m0 792h612v-792h-612v792z"/>
  </clipPath>
  <clipPath id="br">
   <path d="m0.06 792h612v-792h-612v792z"/>
  </clipPath>
  <clipPath id="bo">
   <path d="m236.03 347.49h-13.459l1.449 5.415s0.017 91.334 0.017 92.532 0 2.935 0.31 3.962c0 0 2.967 9.407 3.366 10.605 0.4 1.198 0.712 1.565 1.739 1.565s1.338-0.367 1.737-1.565 3.366-10.605 3.366-10.605c0.31-1.027 0.31-2.764 0.31-3.962v-92.532l1.165-5.415"/>
  </clipPath>
  <clipPath id="bl">
   <path d="m72.5 499.91h227.51v-336.13h-227.51v336.13z" clip-rule="evenodd"/>
  </clipPath>
  <clipPath id="bm">
   <path d="m0 792h612v-792h-612v792z"/>
  </clipPath>
  <clipPath id="bn">
   <path d="m0.06 792h612v-792h-612v792z"/>
  </clipPath>
  <clipPath id="bk">
   <path d="m223.46 342.41c0.748 9.305 3.562 9.457 3.562 9.457h4.5s2.612-0.295 3.322-9.457h-11.384"/>
  </clipPath>
 </defs>
 <g transform="translate(-260.04 -561.66)">
  <path d="m369.02 871.35 0.71917-166.17s-2.1602-30.795 5.0395-81.148c3.8021-26.602 17.837-46.471 28.915-47.193 11.078 0.72182 24.394 20.592 28.196 47.193 7.1997 50.353 5.0395 81.148 5.0395 81.148l0.71918 166.17h-68.628z" fill="#d57637" stroke="#231f20" stroke-miterlimit="3.864" stroke-width="1.3855"/>
  <path d="m435.24 963.27c1.9777-24.603 9.418-25.005 9.418-25.005h11.898s6.9062 0.77999 8.7834 25.005h-30.1" fill="#7b7979"/>
  <g transform="matrix(2.644 0 0 -2.644 -155.59 1868.6)">
   <g clip-path="url(#bk)">
    <path d="m229.43 348.27v-7.194m-2.52 7.49-0.632-7.194m5.573 7.046 0.632-7.194" fill="none" stroke="#231f20" stroke-miterlimit="3.864" stroke-width=".524"/>
   </g>
  </g>
  <g transform="matrix(2.644 0 0 -2.644 -155.59 1868.6)">
   <g clip-path="url(#bl)">
    <g clip-path="url(#bm)">
     <g clip-path="url(#bn)">
      <path d="m223.46 342.41c0.748 9.305 3.562 9.457 3.562 9.457h4.5s2.612-0.295 3.322-9.457h-11.384z" fill="none" stroke="#231f20" stroke-miterlimit="3.864" stroke-width=".612"/>
      <path d="m236.03 347.49h-13.459l1.449 5.415s0.017 91.334 0.017 92.532 0 2.935 0.31 3.962c0 0 2.967 9.407 3.366 10.605 0.4 1.198 0.712 1.565 1.739 1.565s1.338-0.367 1.737-1.565 3.366-10.605 3.366-10.605c0.31-1.027 0.31-2.764 0.31-3.962v-92.532l1.165-5.415" fill="#e2e2e2"/>
     </g>
    </g>
   </g>
  </g>
  <g transform="matrix(2.644 0 0 -2.644 -155.59 1868.6)">
   <g clip-path="url(#bo)" stroke-miterlimit="3.864" stroke-width=".524">
    <path d="m227.93 352.01 0.016 93.957s-0.139-0.334 0 2.076c0.127 2.178 0.507 6.876 0.965 11.046-0.825-2.571-2.569-9.803-2.569-9.803-0.077-0.267-0.142-0.74-0.178-1.4-0.037-0.673-0.036-1.366-0.036-1.931v-93.945l-0.889-4.97s2.691 1.521 2.691 4.97z" fill="#d3d2d2" stroke="#d3d2d2"/>
    <path d="m235.58 360.69h-12.718m12.866-3.262h-12.718m12.718-5.563h-12.718" fill="none" stroke="#7b7979"/>
   </g>
  </g>
  <g transform="matrix(2.644 0 0 -2.644 -155.59 1868.6)">
   <g clip-path="url(#bp)">
    <g clip-path="url(#bq)">
     <g clip-path="url(#br)">
      <path d="m236.03 347.49h-13.459l1.449 5.415s0.017 91.334 0.017 92.532 0 2.935 0.31 3.962c0 0 2.967 9.407 3.366 10.605 0.4 1.198 0.712 1.565 1.739 1.565s1.338-0.367 1.737-1.565 3.366-10.605 3.366-10.605c0.31-1.027 0.31-2.764 0.31-3.962v-92.532l1.165-5.415z" fill="none" stroke="#231f20" stroke-miterlimit="3.864" stroke-width=".524"/>
      <path d="m218.78 425.61s2.669-21.73 9.714-32.63c7.046-10.9 14.485-12.325 15.87-21.872 0.297-2.043 0.445-4.157 0.445-4.157l-25.584-6.117-1.818 63.886 1.373 0.89" fill="#fff"/>
     </g>
    </g>
   </g>
  </g>
  <g transform="matrix(2.644 0 0 -2.644 -155.59 1868.6)">
   <g clip-path="url(#bs)">
    <path d="m220.56 359.02 25.14 4.19v13.162l-15.722 19.251h-4.347c1.867-3.637 4.205-7.064 7.168-10.21 5.984-6.354 9.706-7.58 10.613-17.446l-22.923-5.481 0.071-3.466" fill="#231f20"/>
    <path d="m219.52 372.33h26.029v-2.224l-25.881-2.263-0.148 4.487" fill="#231f20"/>
    <path d="m228.64 395.69h-11.235" fill="none" stroke="#231f20" stroke-miterlimit="3.864" stroke-width=".262"/>
   </g>
  </g>
  <g transform="matrix(2.644 0 0 -2.644 -155.59 1868.6)">
   <g clip-path="url(#bt)">
    <g clip-path="url(#bu)">
     <g clip-path="url(#al)">
      <path d="m218.78 425.61s2.669-21.73 9.714-32.63c7.046-10.9 14.485-12.325 15.87-21.872 0.297-2.043 0.445-4.157 0.445-4.157l-25.584-6.117-1.818 63.886 1.373 0.89z" fill="none" stroke="#231f20" stroke-miterlimit="3.864" stroke-width=".524"/>
      <path d="m231.39 456.28h-3.893m6.117-8.38h-8.38m8.38-7.452h-8.38m8.38-11.532h-8.38m8.38-20.801h-8.38" fill="none" stroke="#231f20" stroke-miterlimit="3.864" stroke-width=".524"/>
      <path d="m232.28 394.5h1.334v-4.486h-1.334v4.486z" fill="#231f20"/>
      <path d="m232.43 364.4v6.717" fill="none" stroke="#231f20" stroke-miterlimit="3.864" stroke-width=".524"/>
      <path d="m232.43 370.26v2.428" fill="none" stroke="#fff" stroke-miterlimit="3.864" stroke-width=".524"/>
      <path d="m199.47 342.41c-0.748 9.305-3.562 9.457-3.562 9.457h-4.5s-2.612-0.295-3.322-9.457h11.384" fill="#7b7979"/>
     </g>
    </g>
   </g>
  </g>
  <g transform="matrix(2.644 0 0 -2.644 -155.59 1868.6)">
   <g clip-path="url(#am)">
    <path d="m193.5 348.27v-7.194m2.52 7.49 0.632-7.194m-5.573 7.046-0.632-7.194" fill="none" stroke="#231f20" stroke-miterlimit="3.864" stroke-width=".524"/>
   </g>
  </g>
  <g transform="matrix(2.644 0 0 -2.644 -155.59 1868.6)">
   <g clip-path="url(#an)">
    <g clip-path="url(#ao)">
     <g clip-path="url(#ap)">
      <path d="m199.47 342.41c-0.748 9.305-3.562 9.457-3.562 9.457h-4.5s-2.612-0.295-3.322-9.457h11.384z" fill="none" stroke="#231f20" stroke-miterlimit="3.864" stroke-width=".612"/>
      <path d="m186.9 347.49h13.459l-1.45 5.415s-0.016 91.334-0.016 92.532 0 2.935-0.31 3.962c0 0-2.967 9.407-3.367 10.605-0.399 1.198-0.712 1.565-1.739 1.565s-1.337-0.367-1.736-1.565c-0.4-1.198-3.367-10.605-3.367-10.605-0.31-1.027-0.31-2.764-0.31-3.962v-92.532l-1.164-5.415" fill="#e2e2e2"/>
     </g>
    </g>
   </g>
  </g>
  <g transform="matrix(2.644 0 0 -2.644 -155.59 1868.6)">
   <g clip-path="url(#aq)" stroke-miterlimit="3.864" stroke-width=".524">
    <path d="m195 352.01-0.017 93.957s0.14-0.334 0 2.076c-0.126 2.178-0.506 6.876-0.964 11.046 0.825-2.571 2.569-9.803 2.569-9.803 0.076-0.267 0.142-0.74 0.177-1.4 0.037-0.673 0.036-1.366 0.036-1.931v-93.945l0.89-4.97s-2.691 1.521-2.691 4.97z" fill="#d3d2d2" stroke="#d3d2d2"/>
    <path d="m187.34 360.69h12.719m-12.867-3.262h12.718m-12.718-5.563h12.718" fill="none" stroke="#7b7979"/>
   </g>
  </g>
  <g transform="matrix(2.644 0 0 -2.644 -155.59 1868.6)">
   <g clip-path="url(#ar)">
    <g clip-path="url(#as)">
     <g clip-path="url(#at)">
      <path d="m186.9 347.49h13.459l-1.45 5.415s-0.016 91.334-0.016 92.532 0 2.935-0.31 3.962c0 0-2.967 9.407-3.367 10.605-0.399 1.198-0.712 1.565-1.739 1.565s-1.337-0.367-1.736-1.565c-0.4-1.198-3.367-10.605-3.367-10.605-0.31-1.027-0.31-2.764-0.31-3.962v-92.532l-1.164-5.415z" fill="none" stroke="#231f20" stroke-miterlimit="3.864" stroke-width=".524"/>
      <path d="m204.69 425.61s-2.668-21.73-9.714-32.63-14.484-12.325-15.87-21.872c-0.297-2.043-0.445-4.157-0.445-4.157l25.584-6.117 1.818 63.886-1.373 0.89" fill="#fff"/>
     </g>
    </g>
   </g>
  </g>
  <g transform="matrix(2.644 0 0 -2.644 -155.59 1868.6)">
   <g clip-path="url(#au)">
    <path d="m202.91 359.02-25.139 4.19v13.162l15.722 19.251h4.346c-1.866-3.637-4.205-7.064-7.168-10.21-5.983-6.354-9.705-7.58-10.613-17.446l22.923-5.481-0.071-3.466" fill="#231f20"/>
    <path d="m203.95 372.33h-26.029v-2.224l25.881-2.263 0.148 4.487" fill="#231f20"/>
    <path d="m194.83 395.69h11.235" fill="none" stroke="#231f20" stroke-miterlimit="3.864" stroke-width=".262"/>
   </g>
  </g>
  <g transform="matrix(2.644 0 0 -2.644 -155.59 1868.6)">
   <g clip-path="url(#av)">
    <g clip-path="url(#aw)">
     <g clip-path="url(#ax)">
      <path d="m204.69 425.61s-2.668-21.73-9.714-32.63-14.484-12.325-15.87-21.872c-0.297-2.043-0.445-4.157-0.445-4.157l25.584-6.117 1.818 63.886-1.373 0.89z" fill="none" stroke="#231f20" stroke-miterlimit="3.864" stroke-width=".524"/>
      <path d="m191.53 456.28h3.894m-6.117-8.38h8.38m-8.38-7.452h8.38m-8.38-11.532h8.38m-8.38-20.801h8.38" fill="none" stroke="#231f20" stroke-miterlimit="3.864" stroke-width=".524"/>
      <path d="m189.31 394.5h1.334v-4.486h-1.334v4.486z" fill="#231f20"/>
      <path d="m204.1 360.99 15.426-0.067-0.162 48.24s0.485 8.94-1.132 23.557c-0.855 7.722-4.009 13.491-6.498 13.7-2.49-0.209-5.482-5.978-6.337-13.7-1.617-14.617-1.132-23.557-1.132-23.557l-0.17-48.17" fill="#fff"/>
     </g>
    </g>
   </g>
  </g>
  <g transform="matrix(2.644 0 0 -2.644 -155.59 1868.6)">
   <g clip-path="url(#ay)">
    <path d="m205.62 445.08c0 1.905 2.681 3.449 5.988 3.449 3.308 0 5.989-1.544 5.989-3.449s-2.681-3.449-5.989-3.449c-3.307 0-5.988 1.544-5.988 3.449z" fill="#231f20" stroke="#231f20" stroke-miterlimit="3.864" stroke-width=".262"/>
   </g>
  </g>
  <g transform="matrix(2.644 0 0 -2.644 -155.59 1868.6)">
   <g clip-path="url(#az)">
    <g clip-path="url(#ba)">
     <g clip-path="url(#bb)">
      <path d="m204.1 360.99 15.426-0.067-0.162 48.24s0.485 8.94-1.132 23.557c-0.855 7.722-4.009 13.491-6.498 13.7-2.49-0.209-5.482-5.978-6.337-13.7-1.617-14.617-1.132-23.557-1.132-23.557l-0.17-48.17z" fill="none" stroke="#231f20" stroke-miterlimit="3.864" stroke-width=".524"/>
      <path d="m215.01 428.9c-0.403 1.876-1.939 2.388-3.418 2.07-1.492 0.308-3.161-0.148-3.574-2.07l-1.536 0.331c0.558 2.594 2.74 3.685 5.104 3.339 2.345 0.355 4.415-0.802 4.961-3.339l-1.537-0.331z" fill="#918f90" stroke="#231f20" stroke-miterlimit="3.864" stroke-width=".262"/>
      <path d="m212.4 349.75s1.186 6.305 1.334 13.756-1.104 12.421-1.104 12.421h-1.037s-1.186-4.97-1.038-12.421 1.845-13.756 1.845-13.756" fill="#fff"/>
     </g>
    </g>
   </g>
  </g>
  <g transform="matrix(2.644 0 0 -2.644 -155.59 1868.6)">
   <g clip-path="url(#bc)">
    <path d="m212.18 348.12v29.774h2.114v-29.923l-2.114 0.149z" fill="#d3d2d2" stroke="#231f20" stroke-miterlimit="3.864" stroke-width=".262"/>
   </g>
  </g>
  <g transform="matrix(2.644 0 0 -2.644 -155.59 1868.6)">
   <g clip-path="url(#bd)">
    <g clip-path="url(#be)">
     <g clip-path="url(#bf)">
      <path d="m212.4 349.75s1.186 6.305 1.334 13.756-1.104 12.421-1.104 12.421h-1.037s-1.186-4.97-1.038-12.421 1.845-13.756 1.845-13.756z" fill="none" stroke="#231f20" stroke-miterlimit="3.864" stroke-width=".262"/>
      <path d="m211.29 353.78c0.127 8.395-2.341 8.539-2.341 8.539h-2.786s-2.313-0.227-2.187-8.622l7.314 0.083" fill="#231f20"/>
     </g>
    </g>
   </g>
  </g>
  <g transform="matrix(2.644 0 0 -2.644 -155.59 1868.6)">
   <g clip-path="url(#bg)">
    <path d="m202.62 354.84h9.121m-9.121 1.571h9.121m-9.121 1.572h9.121m-9.121 1.571h9.121" fill="none" stroke="#7b7979" stroke-miterlimit="3.864" stroke-width=".524"/>
   </g>
  </g>
  <g transform="matrix(2.644 0 0 -2.644 -155.59 1868.6)">
   <g clip-path="url(#bh)">
    <g clip-path="url(#bi)">
     <g clip-path="url(#bj)">
      <path d="m211.29 353.78c0.127 8.395-2.341 8.539-2.341 8.539h-2.786s-2.313-0.227-2.187-8.622l7.314 0.083z" fill="none" stroke="#231f20" stroke-miterlimit="3.864" stroke-width=".524"/>
      <path d="m220.41 353.78c0.127 8.395-2.341 8.539-2.341 8.539h-2.786s-2.313-0.227-2.187-8.622l7.314 0.083" fill="#231f20"/>
     </g>
    </g>
   </g>
  </g>
  <g transform="matrix(2.644 0 0 -2.644 -155.59 1868.6)">
   <g clip-path="url(#bv)">
    <path d="m211.74 354.84h9.122m-9.122 1.571h9.122m-9.122 1.572h9.122m-9.122 1.571h9.122" fill="none" stroke="#7b7979" stroke-miterlimit="3.864" stroke-width=".524"/>
   </g>
  </g>
  <path d="m427.18 933.2c0.33579-22.197-6.1897-22.577-6.1897-22.577h-7.3662s-6.1156 0.6002-5.7825 22.797l19.338-0.21945z" fill="none" stroke="#231f20" stroke-miterlimit="3.864" stroke-width="1.3855"/>
  <path d="m401.99 914.54c0.39132-39.61-7.2473-40.292-7.2473-40.292h-8.6222s-7.16 1.0735-6.7687 40.684l22.638-0.39132z" fill="#fff" stroke="#231f20" stroke-miterlimit="3.864" stroke-width="1.3855"/>
  <path d="m431.69 914.54c0.39396-39.61-7.2473-40.292-7.2473-40.292h-8.6222s-7.1574 1.0735-6.766 40.684l22.635-0.39132z" fill="#fff" stroke="#231f20" stroke-miterlimit="3.864" stroke-width="1.3855"/>
  <path d="m348.08 905.13v-17.76" fill="none" stroke="#231f20" stroke-miterlimit="3.864" stroke-width="1.3855"/>
  <path d="m348.08 889.64v-6.4197" fill="none" stroke="#fff" stroke-miterlimit="3.864" stroke-width="1.3855"/>
 </g>
</svg>
