<svg xmlns="http://www.w3.org/2000/svg" viewBox="0 0 285.64 421.41"><defs><clipPath id="s"><path d="M0 792h612V0H0v792z"/></clipPath><clipPath id="K"><path d="M220.41 353.78c.127 8.395-2.341 8.539-2.341 8.539h-2.786s-2.313-.227-2.187-8.622l7.314.083"/></clipPath><clipPath id="I"><path d="M0 792h612V0H0v792z"/></clipPath><clipPath id="J"><path d="M.06 792h612V0H.06v792z"/></clipPath><clipPath id="G"><path d="M211.29 353.78c.127 8.395-2.341 8.539-2.341 8.539h-2.786s-2.313-.227-2.187-8.622l7.314.083"/></clipPath><clipPath id="D"><path d="M72.5 499.91h227.51V163.78H72.5v336.13z" clip-rule="evenodd"/></clipPath><clipPath id="E"><path d="M0 792h612V0H0v792z"/></clipPath><clipPath id="F"><path d="M.06 792h612V0H.06v792z"/></clipPath><clipPath id="C"><path d="M212.4 349.75s1.186 6.305 1.334 13.756-1.104 12.421-1.104 12.421h-1.037s-1.186-4.97-1.038-12.421 1.845-13.756 1.845-13.756"/></clipPath><clipPath id="z"><path d="M72.5 499.91h227.51V163.78H72.5v336.13z" clip-rule="evenodd"/></clipPath><clipPath id="A"><path d="M0 792h612V0H0v792z"/></clipPath><clipPath id="B"><path d="M.06 792h612V0H.06v792z"/></clipPath><clipPath id="y"><path d="m204.1 360.99 15.426-.067-.162 48.24s.485 8.94-1.132 23.557c-.855 7.722-4.009 13.491-6.498 13.7-2.49-.209-5.482-5.978-6.337-13.7-1.617-14.617-1.132-23.557-1.132-23.557l-.17-48.17"/></clipPath><clipPath id="v"><path d="M72.5 499.91h227.51V163.78H72.5v336.13z" clip-rule="evenodd"/></clipPath><clipPath id="w"><path d="M0 792h612V0H0v792z"/></clipPath><clipPath id="x"><path d="M.06 792h612V0H.06v792z"/></clipPath><clipPath id="u"><path d="M204.69 425.61s-2.668-21.73-9.714-32.63-14.484-12.325-15.87-21.872c-.297-2.043-.445-4.157-.445-4.157l25.584-6.117 1.818 63.886-1.373.89"/></clipPath><clipPath id="r"><path d="M72.5 499.91h227.51V163.78H72.5v336.13z" clip-rule="evenodd"/></clipPath><clipPath id="H"><path d="M72.5 499.91h227.51V163.78H72.5v336.13z" clip-rule="evenodd"/></clipPath><clipPath id="t"><path d="M.06 792h612V0H.06v792z"/></clipPath><clipPath id="q"><path d="M186.9 347.49h13.459l-1.45 5.415-.016 92.532c0 1.198 0 2.935-.31 3.962 0 0-2.967 9.407-3.367 10.605-.399 1.198-.712 1.565-1.739 1.565s-1.337-.367-1.736-1.565c-.4-1.198-3.367-10.605-3.367-10.605-.31-1.027-.31-2.764-.31-3.962v-92.532l-1.164-5.415"/></clipPath><clipPath id="n"><path d="M72.5 499.91h227.51V163.78H72.5v336.13z" clip-rule="evenodd"/></clipPath><clipPath id="o"><path d="M0 792h612V0H0v792z"/></clipPath><clipPath id="p"><path d="M.06 792h612V0H.06v792z"/></clipPath><clipPath id="m"><path d="M199.47 342.41c-.748 9.305-3.562 9.457-3.562 9.457h-4.5s-2.612-.295-3.322-9.457h11.384"/></clipPath><clipPath id="j"><path d="M72.5 499.91h227.51V163.78H72.5v336.13z" clip-rule="evenodd"/></clipPath><clipPath id="k"><path d="M0 792h612V0H0v792z"/></clipPath><clipPath id="l"><path d="M.06 792h612V0H.06v792z"/></clipPath><clipPath id="i"><path d="M218.78 425.61s2.669-21.73 9.714-32.63c7.046-10.9 14.485-12.325 15.87-21.872.297-2.043.445-4.157.445-4.157l-25.584-6.117-1.818 63.886 1.373.89"/></clipPath><clipPath id="f"><path d="M72.5 499.91h227.51V163.78H72.5v336.13z" clip-rule="evenodd"/></clipPath><clipPath id="g"><path d="M0 792h612V0H0v792z"/></clipPath><clipPath id="h"><path d="M.06 792h612V0H.06v792z"/></clipPath><clipPath id="e"><path d="M236.03 347.49h-13.459l1.449 5.415.017 92.532c0 1.198 0 2.935.31 3.962 0 0 2.967 9.407 3.366 10.605.4 1.198.712 1.565 1.739 1.565s1.338-.367 1.737-1.565 3.366-10.605 3.366-10.605c.31-1.027.31-2.764.31-3.962v-92.532l1.165-5.415"/></clipPath><clipPath id="b"><path d="M72.5 499.91h227.51V163.78H72.5v336.13z" clip-rule="evenodd"/></clipPath><clipPath id="c"><path d="M0 792h612V0H0v792z"/></clipPath><clipPath id="d"><path d="M.06 792h612V0H.06v792z"/></clipPath><clipPath id="a"><path d="M223.46 342.41c.748 9.305 3.562 9.457 3.562 9.457h4.5s2.612-.295 3.322-9.457H223.46"/></clipPath></defs><path fill="#d57637" stroke="#231f20" stroke-miterlimit="3.864" stroke-width="1.385" d="m108.98 309.69.72-166.17s-2.161-30.795 5.039-81.148c3.802-26.602 17.837-46.471 28.915-47.193 11.078.722 24.394 20.592 28.196 47.193 7.2 50.353 5.04 81.148 5.04 81.148l.718 166.17H108.98z"/><path fill="#7b7979" d="M175.2 401.61c1.978-24.603 9.418-25.005 9.418-25.005h11.898s6.906.78 8.783 25.005h-30.1"/><g clip-path="url(#a)" transform="matrix(2.644 0 0 -2.644 -415.63 1306.94)"><path fill="none" stroke="#231f20" stroke-miterlimit="3.864" stroke-width=".524" d="M229.43 348.27v-7.194m-2.52 7.49-.632-7.194m5.573 7.046.632-7.194"/></g><g clip-path="url(#b)" transform="matrix(2.644 0 0 -2.644 -415.63 1306.94)"><g clip-path="url(#c)"><g clip-path="url(#d)"><path fill="none" stroke="#231f20" stroke-miterlimit="3.864" stroke-width=".612" d="M223.46 342.41c.748 9.305 3.562 9.457 3.562 9.457h4.5s2.612-.295 3.322-9.457H223.46z"/><path fill="#e2e2e2" d="M236.03 347.49h-13.459l1.449 5.415.017 92.532c0 1.198 0 2.935.31 3.962 0 0 2.967 9.407 3.366 10.605.4 1.198.712 1.565 1.739 1.565s1.338-.367 1.737-1.565 3.366-10.605 3.366-10.605c.31-1.027.31-2.764.31-3.962v-92.532l1.165-5.415"/></g></g></g><g stroke-miterlimit="3.864" stroke-width=".524" clip-path="url(#e)" transform="matrix(2.644 0 0 -2.644 -415.63 1306.94)"><path fill="#d3d2d2" stroke="#d3d2d2" d="m227.93 352.01.016 93.957s-.139-.334 0 2.076c.127 2.178.507 6.876.965 11.046-.825-2.571-2.569-9.803-2.569-9.803-.077-.267-.142-.74-.178-1.4-.037-.673-.036-1.366-.036-1.931V352.01l-.889-4.97s2.691 1.521 2.691 4.97z"/><path fill="none" stroke="#7b7979" d="M235.58 360.69h-12.718m12.866-3.262H223.01m12.718-5.563H223.01"/></g><g clip-path="url(#f)" transform="matrix(2.644 0 0 -2.644 -415.63 1306.94)"><g clip-path="url(#g)"><g clip-path="url(#h)"><path fill="none" stroke="#231f20" stroke-miterlimit="3.864" stroke-width=".524" d="M236.03 347.49h-13.459l1.449 5.415.017 92.532c0 1.198 0 2.935.31 3.962 0 0 2.967 9.407 3.366 10.605.4 1.198.712 1.565 1.739 1.565s1.338-.367 1.737-1.565 3.366-10.605 3.366-10.605c.31-1.027.31-2.764.31-3.962v-92.532l1.165-5.415z"/><path fill="#fff" d="M218.78 425.61s2.669-21.73 9.714-32.63c7.046-10.9 14.485-12.325 15.87-21.872.297-2.043.445-4.157.445-4.157l-25.584-6.117-1.818 63.886 1.373.89"/></g></g></g><g clip-path="url(#i)" transform="matrix(2.644 0 0 -2.644 -415.63 1306.94)"><path fill="#231f20" d="m220.56 359.02 25.14 4.19v13.162l-15.722 19.251h-4.347c1.867-3.637 4.205-7.064 7.168-10.21 5.984-6.354 9.706-7.58 10.613-17.446l-22.923-5.481.071-3.466"/><path fill="#231f20" d="M219.52 372.33h26.029v-2.224l-25.881-2.263-.148 4.487"/><path fill="none" stroke="#231f20" stroke-miterlimit="3.864" stroke-width=".262" d="M228.64 395.69h-11.235"/></g><g clip-path="url(#j)" transform="matrix(2.644 0 0 -2.644 -415.63 1306.94)"><g clip-path="url(#k)"><g clip-path="url(#l)"><path fill="none" stroke="#231f20" stroke-miterlimit="3.864" stroke-width=".524" d="M218.78 425.61s2.669-21.73 9.714-32.63c7.046-10.9 14.485-12.325 15.87-21.872.297-2.043.445-4.157.445-4.157l-25.584-6.117-1.818 63.886 1.373.89zM231.39 456.28h-3.893m6.117-8.38h-8.38m8.38-7.452h-8.38m8.38-11.532h-8.38m8.38-20.801h-8.38"/><path fill="#231f20" d="M232.28 394.5h1.334v-4.486h-1.334v4.486z"/><path fill="none" stroke="#231f20" stroke-miterlimit="3.864" stroke-width=".524" d="M232.43 364.4v6.717"/><path fill="none" stroke="#fff" stroke-miterlimit="3.864" stroke-width=".524" d="M232.43 370.26v2.428"/><path fill="#7b7979" d="M199.47 342.41c-.748 9.305-3.562 9.457-3.562 9.457h-4.5s-2.612-.295-3.322-9.457h11.384"/></g></g></g><g clip-path="url(#m)" transform="matrix(2.644 0 0 -2.644 -415.63 1306.94)"><path fill="none" stroke="#231f20" stroke-miterlimit="3.864" stroke-width=".524" d="M193.5 348.27v-7.194m2.52 7.49.632-7.194m-5.573 7.046-.632-7.194"/></g><g clip-path="url(#n)" transform="matrix(2.644 0 0 -2.644 -415.63 1306.94)"><g clip-path="url(#o)"><g clip-path="url(#p)"><path fill="none" stroke="#231f20" stroke-miterlimit="3.864" stroke-width=".612" d="M199.47 342.41c-.748 9.305-3.562 9.457-3.562 9.457h-4.5s-2.612-.295-3.322-9.457h11.384z"/><path fill="#e2e2e2" d="M186.9 347.49h13.459l-1.45 5.415-.016 92.532c0 1.198 0 2.935-.31 3.962 0 0-2.967 9.407-3.367 10.605-.399 1.198-.712 1.565-1.739 1.565s-1.337-.367-1.736-1.565c-.4-1.198-3.367-10.605-3.367-10.605-.31-1.027-.31-2.764-.31-3.962v-92.532l-1.164-5.415"/></g></g></g><g stroke-miterlimit="3.864" stroke-width=".524" clip-path="url(#q)" transform="matrix(2.644 0 0 -2.644 -415.63 1306.94)"><path fill="#d3d2d2" stroke="#d3d2d2" d="m195 352.01-.017 93.957s.14-.334 0 2.076c-.126 2.178-.506 6.876-.964 11.046.825-2.571 2.569-9.803 2.569-9.803.076-.267.142-.74.177-1.4.037-.673.036-1.366.036-1.931V352.01l.89-4.97S195 348.561 195 352.01z"/><path fill="none" stroke="#7b7979" d="M187.34 360.69h12.719m-12.867-3.262h12.718m-12.718-5.563h12.718"/></g><g clip-path="url(#r)" transform="matrix(2.644 0 0 -2.644 -415.63 1306.94)"><g clip-path="url(#s)"><g clip-path="url(#t)"><path fill="none" stroke="#231f20" stroke-miterlimit="3.864" stroke-width=".524" d="M186.9 347.49h13.459l-1.45 5.415-.016 92.532c0 1.198 0 2.935-.31 3.962 0 0-2.967 9.407-3.367 10.605-.399 1.198-.712 1.565-1.739 1.565s-1.337-.367-1.736-1.565c-.4-1.198-3.367-10.605-3.367-10.605-.31-1.027-.31-2.764-.31-3.962v-92.532l-1.164-5.415z"/><path fill="#fff" d="M204.69 425.61s-2.668-21.73-9.714-32.63-14.484-12.325-15.87-21.872c-.297-2.043-.445-4.157-.445-4.157l25.584-6.117 1.818 63.886-1.373.89"/></g></g></g><g clip-path="url(#u)" transform="matrix(2.644 0 0 -2.644 -415.63 1306.94)"><path fill="#231f20" d="m202.91 359.02-25.139 4.19v13.162l15.722 19.251h4.346c-1.866-3.637-4.205-7.064-7.168-10.21-5.983-6.354-9.705-7.58-10.613-17.446l22.923-5.481-.071-3.466"/><path fill="#231f20" d="M203.95 372.33h-26.029v-2.224l25.881-2.263.148 4.487"/><path fill="none" stroke="#231f20" stroke-miterlimit="3.864" stroke-width=".262" d="M194.83 395.69h11.235"/></g><g clip-path="url(#v)" transform="matrix(2.644 0 0 -2.644 -415.63 1306.94)"><g clip-path="url(#w)"><g clip-path="url(#x)"><path fill="none" stroke="#231f20" stroke-miterlimit="3.864" stroke-width=".524" d="M204.69 425.61s-2.668-21.73-9.714-32.63-14.484-12.325-15.87-21.872c-.297-2.043-.445-4.157-.445-4.157l25.584-6.117 1.818 63.886-1.373.89zM191.53 456.28h3.894m-6.117-8.38h8.38m-8.38-7.452h8.38m-8.38-11.532h8.38m-8.38-20.801h8.38"/><path fill="#231f20" d="M189.31 394.5h1.334v-4.486h-1.334v4.486z"/><path fill="#fff" d="m204.1 360.99 15.426-.067-.162 48.24s.485 8.94-1.132 23.557c-.855 7.722-4.009 13.491-6.498 13.7-2.49-.209-5.482-5.978-6.337-13.7-1.617-14.617-1.132-23.557-1.132-23.557l-.17-48.17"/></g></g></g><g clip-path="url(#y)" transform="matrix(2.644 0 0 -2.644 -415.63 1306.94)"><path fill="#231f20" stroke="#231f20" stroke-miterlimit="3.864" stroke-width=".262" d="M205.62 445.08c0 1.905 2.681 3.449 5.988 3.449 3.308 0 5.989-1.544 5.989-3.449s-2.681-3.449-5.989-3.449c-3.307 0-5.988 1.544-5.988 3.449z"/></g><g clip-path="url(#z)" transform="matrix(2.644 0 0 -2.644 -415.63 1306.94)"><g clip-path="url(#A)"><g clip-path="url(#B)"><path fill="none" stroke="#231f20" stroke-miterlimit="3.864" stroke-width=".524" d="m204.1 360.99 15.426-.067-.162 48.24s.485 8.94-1.132 23.557c-.855 7.722-4.009 13.491-6.498 13.7-2.49-.209-5.482-5.978-6.337-13.7-1.617-14.617-1.132-23.557-1.132-23.557l-.17-48.17z"/><path fill="#918f90" stroke="#231f20" stroke-miterlimit="3.864" stroke-width=".262" d="M215.01 428.9c-.403 1.876-1.939 2.388-3.418 2.07-1.492.308-3.161-.148-3.574-2.07l-1.536.331c.558 2.594 2.74 3.685 5.104 3.339 2.345.355 4.415-.802 4.961-3.339l-1.537-.331z"/><path fill="#fff" d="M212.4 349.75s1.186 6.305 1.334 13.756-1.104 12.421-1.104 12.421h-1.037s-1.186-4.97-1.038-12.421 1.845-13.756 1.845-13.756"/></g></g></g><g clip-path="url(#C)" transform="matrix(2.644 0 0 -2.644 -415.63 1306.94)"><path fill="#d3d2d2" stroke="#231f20" stroke-miterlimit="3.864" stroke-width=".262" d="M212.18 348.12v29.774h2.114v-29.923l-2.114.149z"/></g><g clip-path="url(#D)" transform="matrix(2.644 0 0 -2.644 -415.63 1306.94)"><g clip-path="url(#E)"><g clip-path="url(#F)"><path fill="none" stroke="#231f20" stroke-miterlimit="3.864" stroke-width=".262" d="M212.4 349.75s1.186 6.305 1.334 13.756-1.104 12.421-1.104 12.421h-1.037s-1.186-4.97-1.038-12.421 1.845-13.756 1.845-13.756z"/><path fill="#231f20" d="M211.29 353.78c.127 8.395-2.341 8.539-2.341 8.539h-2.786s-2.313-.227-2.187-8.622l7.314.083"/></g></g></g><g clip-path="url(#G)" transform="matrix(2.644 0 0 -2.644 -415.63 1306.94)"><path fill="none" stroke="#7b7979" stroke-miterlimit="3.864" stroke-width=".524" d="M202.62 354.84h9.121m-9.121 1.571h9.121m-9.121 1.572h9.121m-9.121 1.571h9.121"/></g><g clip-path="url(#H)" transform="matrix(2.644 0 0 -2.644 -415.63 1306.94)"><g clip-path="url(#I)"><g clip-path="url(#J)"><path fill="none" stroke="#231f20" stroke-miterlimit="3.864" stroke-width=".524" d="M211.29 353.78c.127 8.395-2.341 8.539-2.341 8.539h-2.786s-2.313-.227-2.187-8.622l7.314.083z"/><path fill="#231f20" d="M220.41 353.78c.127 8.395-2.341 8.539-2.341 8.539h-2.786s-2.313-.227-2.187-8.622l7.314.083"/></g></g></g><g clip-path="url(#K)" transform="matrix(2.644 0 0 -2.644 -415.63 1306.94)"><path fill="none" stroke="#7b7979" stroke-miterlimit="3.864" stroke-width=".524" d="M211.74 354.84h9.122m-9.122 1.571h9.122m-9.122 1.572h9.122m-9.122 1.571h9.122"/></g><path fill="none" stroke="#231f20" stroke-miterlimit="3.864" stroke-width="1.385" d="M167.14 371.54c.336-22.197-6.19-22.577-6.19-22.577h-7.366s-6.115.6-5.782 22.797l19.338-.22z"/><path fill="#fff" stroke="#231f20" stroke-miterlimit="3.864" stroke-width="1.385" d="M141.95 352.88c.391-39.61-7.247-40.292-7.247-40.292h-8.623s-7.16 1.073-6.768 40.684l22.638-.391zM171.65 352.88c.394-39.61-7.247-40.292-7.247-40.292h-8.623s-7.157 1.073-6.766 40.684l22.635-.391z"/><path fill="none" stroke="#231f20" stroke-miterlimit="3.864" stroke-width="1.385" d="M88.04 343.47v-17.76"/><path fill="none" stroke="#fff" stroke-miterlimit="3.864" stroke-width="1.385" d="M88.04 327.98v-6.42"/></svg>