<svg xmlns="http://www.w3.org/2000/svg" viewBox="0 0 393.207 231.515"><g stroke="#000"><path fill="none" stroke-linecap="square" stroke-width="1.0374999999999999" d="m89.003 46.675 31.896-25.424M141.303 71.525l32.862-26.063M148.028 33.487l-27.492 22.237"/><path fill="none" stroke-width="1.0374999999999999" d="M57.315 29.946c.654-.046 1.285 1.262 1.399 2.895s-.329 3.017-.983 3.062-1.285-1.262-1.399-2.895.33-3.015.983-3.062z"/><path fill="none" stroke-width="1.0374999999999999" d="m57.002 35.5-7.527-1.949 6.971-3.166M57.815 31.75h4.801v2.667h-4.801V31.75z"/><path fill="none" stroke-width="1.0374999999999999" d="M152.535 77.496c10.388-8.508 34.319-26.842 34.319-26.842s-2.313-1.348-6.056-3.17c-3.11-1.513-6.528-2-6.528-2s-2.632-.948-13.136-6.451c-10.033-5.255-13.138-5.494-13.138-5.494s-1.631-1.869-12.897-6.929c-11.704-5.256-13.975-5.784-13.975-5.784s.245-.178-11.563-5.478C98.404 10.34 95.303 9.266 95.303 9.266L62.01 33.3s-.742.984 10.748 6.929c13.853 7.167 15.765 6.928 15.765 6.928s1.42 1.103 11.703 6.45l.403.209M92.823.744 93.3 4.13l-3.545.415.255 1.629 3.45-.319.639 2.651 1.756-.35-.415-2.876 3.354-.16-.096-1.597-3.545.255L94.61.52l-1.788.224z"/><path fill="#fff" fill-rule="evenodd" stroke-width="1.0374999999999999" d="m93.425 5.089 1.574-.254.925 4.805-1.574.254-.925-4.805z"/><path fill="none" stroke-width="1.0374999999999999" d="M265.525 87.055h2.651l26.459 11.693.483 1.686h2.89l24.348 10.504v.963h1.688l26.96 12.175.964 1.445 2.41-.24 24.593 10.975.964 1.687-31.767 27.236-2.41.481-27.683-11.935-.241-1.686-2.169.481-27.687-11.7v-1.205l-1.928.241-25.777-11.937-.24-1.205-1.93.241-26.485-11.221-.964-1.204 34.871-27.475z"/><path fill="none" stroke-linecap="square" stroke-width="1.0374999999999999" d="m351.34 125.8-33.754 26.478"/><path fill="#fff" fill-rule="evenodd" stroke-width="1.0374999999999999" d="M350.253 165.475c0 1.836-1.654 3.346-3.663 3.346s-3.664-1.51-3.664-3.346 1.654-3.346 3.664-3.346 3.663 1.511 3.663 3.346z"/><path fill="#fff" fill-rule="evenodd" stroke-width="1.0374999999999999" d="m345.686 163.08.479 3.386-3.544.416.255 1.63 3.449-.32.639 2.653 1.756-.353-.415-2.875 3.353-.16-.097-1.597-3.543.255-.543-3.259-1.789.224z"/><path fill="none" stroke-width="1.0374999999999999" d="M384.844 134.752c-.653-.045-1.285 1.263-1.399 2.897s.33 3.016.983 3.062 1.285-1.262 1.398-2.896-.328-3.016-.982-3.063z"/><path fill="none" stroke-width="1.0374999999999999" d="m385.165 140.313 7.525-1.95-6.97-3.167M379.54 136.55h4.799v2.669h-4.799v-2.669z"/><path fill="none" stroke-linecap="square" stroke-width="1.0374999999999999" d="m294.265 100.625-34.006 26.09"/><path fill="none" stroke-width="1.0374999999999999" d="M153.04 77.287c3.374-3.372 17.593-7.468 40.248 12.77 16.498 14.74 17.47 36.673 17.35 39.03-.24 4.82-1.062 9.22-3.614 12.288-5.554 6.677-30.365 20.762-32.473 22.112-11.121 7.125-17.101 8.07-26.268 7.62l-35.064-44.36s-.609-7.915 9.13-20.7c2.853-3.746 30.691-28.76 30.691-28.76zM212.565 17.787c5.82-4.365 24.581-4.337 47.235 17.348s24.1 49.15 20.726 55.415"/><path fill="none" stroke-width="1.0374999999999999" d="M199.553 39.462c.965-13.49 2.41-14.455 10.122-20.237 5.819-4.364 24.58-4.336 47.233 17.347s24.098 47.222 21.688 51.558M180.752 54.888c3.374-3.373 18.315-7.228 40.968 13.01 16.499 14.742 18.316 36.626 17.352 39.035"/><path fill="none" stroke-width="1.0374999999999999" d="M186.053 50.55c3.373-3.373 18.316-7.228 40.97 13.011 16.5 14.739 18.316 36.623 17.352 39.031"/><path fill="none" stroke-width="1.0374999999999999" d="M188.465 48.625c3.374-3.373 18.315-7.228 40.968 13.011 16.498 14.74 18.315 36.623 17.35 39.032"/><path fill="none" stroke-width="1.0374999999999999" d="M191.353 46.212c3.375-3.373 18.316-7.228 40.97 13.01 16.498 14.74 18.315 36.624 17.35 39.033"/><path fill="none" stroke-width="1.0374999999999999" d="M194.24 44.288c3.374-3.374 18.316-7.23 40.971 13.01 16.499 14.74 18.317 36.623 17.352 39.032"/><path fill="none" stroke-width="1.0374999999999999" d="M197.615 41.4c3.374-3.372 18.316-7.227 40.97 13.011 16.499 14.74 18.316 36.623 17.353 39.032"/><path fill="none" stroke-width="1.0374999999999999" d="M200.515 38.987c3.374-3.373 18.315-7.228 40.969 13.01 16.5 14.74 18.316 36.623 17.352 39.032"/><path fill="none" stroke-width="1.0374999999999999" d="M202.928 37.063c3.373-3.374 18.315-7.23 40.968 13.01 16.499 14.74 18.317 36.622 17.353 39.03M183.165 52.963c3.374-3.374 18.315-7.23 40.968 13.01 16.498 14.74 18.315 36.625 17.35 39.033"/><path fill="none" stroke-linecap="square" stroke-width="1.0374999999999999" d="m198.59 55.85-4.82 4.338M210.64 62.6l-4.82 4.337M225.578 76.575l-4.82 4.338M234.252 91.025l-4.82 4.337"/><path fill="none" stroke-width="1.0374999999999999" d="M203.403 36.337 180.508 54.89l-2.772 2.65-2.048 1.807M166.29 66.212c3.374-3.372 18.52-7.42 40.97 13.01 18.798 17.108 20.968 44.574 14.46 50.357"/><path fill="none" stroke-width="1.0374999999999999" d="M168.465 64.037c3.374-3.372 18.52-7.418 40.97 13.012 18.798 17.106 20.968 44.572 14.46 50.355"/><path fill="none" stroke-width="1.0374999999999999" d="M170.865 62.112c3.374-3.373 18.52-7.42 40.97 13.01 18.799 17.107 20.968 44.573 14.46 50.355"/><path fill="none" stroke-width="1.0374999999999999" d="m171.353 61.875-7.953 6.264-1.927 2.41M236.615 118.113l-18.321 14.952-4.228 4.026-7.323 5.505M143.495 86.016c3.335-3.322 17.386-7.357 39.774 12.578 16.304 14.519 17.264 36.124 17.147 38.446-.238 4.746-.476 9.493-3.572 12.104-.388.326-1.146.845-2.183 1.505"/><path fill="none" stroke-width="1.0262499999999999" d="M123.565 104.787c9.539-11.687 31.563-2.25 44.502 13.82 12.385 15.38 17.615 39.24 5.974 44.887"/><path fill="none" stroke-width="1.0374999999999999" d="M191.696 124.205c.928 1.579.377 3.554-2.382 5.247s-4.838 1.312-5.765-.267-.378-3.794 2.381-5.486c2.759-1.694 4.838-1.073 5.766.506z"/><path fill="none" stroke-linecap="square" stroke-width="1.0374999999999999" d="m263.365 38.8 27.465-.239M265.752 41.9l26.51-1.432"/><path fill="none" stroke-width="1.0374999999999999" d="M291.553 34.734c-1.433 1.672-1.194 2.15-.24 3.822s2.627 1.673 4.06.956M290.711 40.262c1.495 1.128 3.766 1.73 5.855.683M289.879 34.255c-.535 1.076-.938 2.824-.501 4.235M293.204 34.037c-.266.6-1.716.543-3.211-.123s-2.508-1.708-2.242-2.307 1.717-.542 3.212.124 2.507 1.708 2.24 2.306z"/><path fill="none" stroke-width="1.0374999999999999" d="m288.452 31.15 5.254-5.734-.479 7.645M298.309 38.567c.714 1.402.676 2.874-.083 3.26s-1.968-.447-2.682-1.85-.676-2.872.082-3.26 1.969.45 2.683 1.85z"/><path fill="none" stroke-width="1.0374999999999999" d="m296.09 36.65 7.164-1.195-4.538 5.735"/><path fill="none" stroke-linecap="square" stroke-width="1.0374999999999999" d="m212.252 17.775-2.868-3.823"/><path fill="none" stroke-width="1.0374999999999999" d="M209.863 13.351c0 .721-.593 1.315-1.313 1.315s-1.313-.594-1.313-1.315.593-1.314 1.313-1.314 1.313.593 1.313 1.314z"/><path fill="none" stroke-linecap="square" stroke-width="1.0374999999999999" d="m269.103 45.963-2.392 1.673M273.165 51.7l-2.391 1.674M270.29 49.55l3.103-1.91"/><path fill="none" stroke-width="1.0374999999999999" d="M275.786 47.156c0 .657-.538 1.195-1.192 1.195s-1.194-.538-1.194-1.195.539-1.195 1.194-1.195 1.192.54 1.192 1.195zM231.365 122.65c0 1.911.578 2.629 2.311 2.629s3.468 1.434 3.179-6.213"/><path fill="none" stroke-width="1.0374999999999999" d="M232.229 125.519c0 2.15-.289 2.388 1.734 2.388s2.312-.477 2.023-2.627M209.39 140.425c0 1.912.577 2.629 2.311 2.629s3.469 1.433 3.179-6.213"/><path fill="none" stroke-width="1.0374999999999999" d="M210.254 143.295c0 2.15-.289 2.389 1.735 2.389s2.311-.478 2.022-2.628M163.49 68.362c6.063-5.487 23.086-3.165 40.876 13.024 16.414 14.939 23.779 47.894 12.224 52.48"/><path fill="none" stroke-width="1.0374999999999999" d="M181.533 73.234c0 .655-1.024 1.195-2.268 1.195s-2.267-.54-2.267-1.195 1.023-1.195 2.267-1.195 2.268.54 2.268 1.195z"/><path fill="#fff" fill-rule="evenodd" stroke-width="1.0374999999999999" d="M180.125 73.234c.69-3.106 1.38-4.54-.92-4.54s-1.84 1.672-1.15 4.54"/><path fill="none" stroke-width="1.0374999999999999" d="M180.578 69.65c0 .394-.647.717-1.433.717s-1.432-.323-1.432-.717c0-.394.647-.718 1.432-.718s1.433.324 1.433.718z"/><path fill="#fff" fill-rule="evenodd" stroke-width="1.0374999999999999" d="M216.938 41.482s-1.307-.75-1.978-1.11-.062-.44.516-.926 1.134-.336 1.134-.336c1.635.812 2.543 1.16 2.543 1.16s.436-.398 1.133-1.106 1.107-.407 1.424-.21.613.656.134 1.15-1.1 1.108-1.1 1.108.825.51 1.75 1.025.712.665.264 1.195-.613.884-1.572.365c-.958-.52-2.052-1.017-2.052-1.017s-.891.625-1.665 1.429-2.046.055-2.046.055c-1.15-.637-.085-1.314-.085-1.314 1.016-.916 1.6-1.468 1.6-1.468z"/><path fill="#fff" fill-rule="evenodd" stroke-width="1.0374999999999999" d="M217.634 41.118s-.135-1.868-.135-2.97 2.117-1.2 2.207-.1.137 2.936.137 2.936.22.994-1.045 1.035c-1.033.034-1.164-.901-1.164-.901z"/><path fill="none" stroke-width="1.0374999999999999" d="M119.653 62.6c1.892 1.007 4.552 2.357 8.287 4.151 11.134 5.345 13.376 4.779 13.376 4.779s0 1.194 5.254 3.822c0 0 5.944 2.738 6.211 2.39"/><path fill="#fff" fill-rule="evenodd" stroke-width="1.24875" d="m170.813 85.628 3.748-3.828s.485-.211 1.628.559 1.117 1.242 1.117 1.242l-3.997 4.05"/><path fill="none" stroke-width="1.24875" d="M144.403 81.875c6.167-4.881 21.866-6.77 44.61 15.525 20.596 20.186 18.543 47.395 9.707 53.555"/><path fill="none" stroke-width="1.24875" d="M136.528 92.175c.84-5.672 3.427-6.979 6.432-9.452 2.809-2.312 21.73-6.18 42.286 14.69 21.713 22.045 19.924 49.26 12.497 54.45-5.658 3.95-5.113 2.56-9.183 3.53"/><path fill="none" stroke-linecap="square" stroke-width="1.24875" d="M155.603 80.338v.003M155.015 80.613l2.07-1.385M138.553 87.488l2.122 1.27M143.29 82.762l1.423 2.474M148.715 80.825l.544 2.266M157.615 81.525l-.456 1.99M164.015 82.313l1.839-1.2M161.515 82.3l-.631 2.101M165.515 86.5l1.259-2.31M169.303 85.188l1.906-1.663M170.553 88.813l1.26-2.102M158.803 81.238l2.755-1.658M174.228 88.05l1.87-1.258M178.553 91.475l2.216-1.655M183.19 95.5l2.061-1.683M188.34 100.85l2.218-1.655M191.99 105.663l2.218-1.655M195.065 110.313l2.216-1.656M197.303 114.925l2.217-1.654M199.428 119.413l2.465-1.92M200.965 123.875l1.839-1.201M202.13 128.125l1.839-1.201M202.415 132.462l1.839-1.2M202.715 136.6l1.663-.956M202.39 141.337l1.748-1.092M185.878 98.237l-1.468 1.28M189.452 102.462l-.63 1.89M193.54 108.113l-1.366.647M196.115 112.612l-1.897.632M198.24 117.338l-1.73.316M199.79 121.675l-1.425.165M200.965 126.234l-1.282-.3M201.58 130.287l-1.406-.188M202.303 134.587l-1.407-.187M202.202 138.717l-1.282-.3M201.728 143.188l-1.395-.424M200.815 147.038l-1.742-.56M199.365 150.038l-1.606-.91M197.365 151.95l-1.592-1.144M194.428 153.925l-1.11-1.355M191.185 154.934l-.29-1.195M180.69 93.475l-1.529 1.425M176.265 89.813l-1.519 1.934M151.652 80.4l2.07-1.385M153.752 81.037l.052 2.062M140.678 84.725l1.952 2.071"/><path fill="#fff" fill-rule="evenodd" stroke-width="1.0374999999999999" d="m247.673 98.204 16.616-13.811c1.035-.86 1.886-.797 1.886.14s-.851 2.417-1.886 3.277l-33.234 27.623c-1.035.86-1.886.795-1.886-.142s.851-2.416 1.886-3.276l16.618-13.811zM197.49 58.35l4.48-3.056v3.47l-4.48 3.056v-3.47zM192.015 55.875l5.475 2.479v3.468l-5.475-2.477v-3.47zM192.015 55.788l5.376 2.477 4.58-3.056-5.476-2.478-4.48 3.057z"/><path fill="none" stroke-width="1.0374999999999999" d="m233.578 21.037-1.587 6.743 10.507 5.901 3.967-5.007"/><path fill="none" stroke-width="1.0374999999999999" d="m234.565 21.625-.396 5.354 9.513 5.751"/><path fill="none" stroke-width="1.0374999999999999" d="M238.924 25.795c0 .979-.493 1.785-1.09 1.785s-1.09-.806-1.09-1.785.492-1.784 1.09-1.784 1.09.805 1.09 1.784zM243.285 28.571c0 .98-.492 1.785-1.09 1.785s-1.09-.805-1.09-1.785.491-1.784 1.09-1.784 1.09.805 1.09 1.784z"/><path fill="none" stroke-linecap="square" stroke-width="1.0374999999999999" d="m287.502 139.85 34.357-27.709"/><path fill="none" stroke-width="1.0374999999999999" d="m138.94 197.85 3.974-1.841-.629-1.743"/><path fill="none" stroke-linecap="square" stroke-width="1.0374999999999999" d="m142.627 194.95 1.787-1.205M142.865 196.212l2.099-1.342"/><path fill="#fff" fill-rule="evenodd" stroke-width="1.0374999999999999" d="M56.69 165.625c1.185-8.939 6.371-17.907 17.19-26.488 31.919-25.31 56.329-10.232 66.425 1.97 10.08 12.184 19.085 41.238-12.939 66.487-10.405 8.204-19.99 11.237-28.693 10.579"/><path fill="none" stroke-linecap="square" stroke-width="1.0374999999999999" d="m8.84 185.262 26.17-1.788M7.652 182.838l27.603-1.644"/><path fill="none" stroke-width="1.0374999999999999" d="m43.834 190.275-8.153-.86-.511-13.036 15.328 1.15"/><path fill="#fff" fill-rule="evenodd" stroke-width="1.0374999999999999" d="m24.339 179.409 2.469-.13.296 5.65-2.469.13-.296-5.65z"/><path fill="none" stroke-width="1.0374999999999999" d="M54.584 167.311c.102-.141.205-.271.305-.389 7.709-9.038 23.655-4.32 36.002 9.18s16.725 31.01 9.017 40.048c-.76.89-1.724 1.665-2.838 2.297M49.105 178.971l-11.632-.647-.4 9.647 6.76.724"/><path fill="none" stroke-width="1.0374999999999999" d="m37.526 181.443 2.833-.05.039 2.267-3.115.054"/><path fill="none" stroke-linecap="square" stroke-width="1.0374999999999999" d="m17.502 184.2-4.126.149"/><path fill="#fff" fill-rule="evenodd" stroke-width="1.0374999999999999" d="M18.078 189.775c-1.88 2.587-5.764 2.215-8.967-.476s-3.462-7.684-1.582-10.272 4.636-1.277 7.837 1.413 4.592 6.747 2.712 9.335z"/><path fill="#fff" fill-rule="evenodd" stroke-width="1.0374999999999999" d="M17.94 190.125c-1.666 2.152-3.663 3.12-5.995 4.417-2.278 1.268-9.191.745-10.713-2.775s-.643-6.857 2.798-9.822c2.535-2.184 2.515-2.781 4.511-3.749"/><path fill="#fff" fill-rule="evenodd" stroke-width="1.0374999999999999" d="M3.11 182.835v-.001c1.881-2.588 5.764-2.215 8.966.476s4.59 6.746 2.71 9.334a4.167 4.167 0 0 1-1.25 1.148"/><path fill="none" stroke-width="1.0374999999999999" d="m90.725 224.025-.017 2.587-1.59 2.868-.163 1.518 1.635-.282 2.344-3.006 2.196-.67"/><path fill="none" stroke-width="1.0374999999999999" d="M90.725 223.962c2.901.013 4.253 1.565 4.341 3.08.019.304.76-.592.742-.897-.09-1.514-1.44-3.066-4.342-3.079"/><path fill="none" stroke-linecap="square" stroke-width="1.0374999999999999" d="m95.74 226.025-.002-.001"/><path fill="none" stroke-width="1.0374999999999999" d="m95.934 225.952-.188-3.466 1.47-2.424-.642-.746"/><path fill="none" stroke-linecap="square" stroke-width="1.0374999999999999" d="m95.685 222.55-1.851-1.041"/><path fill="none" stroke-width="1.0374999999999999" d="M62.18 224.604c.804.956.983 2.148.398 2.64s-1.727.106-2.53-.852-.982-2.148-.397-2.64 1.727-.106 2.529.852z"/><path fill="none" stroke-linecap="square" stroke-width="1.0374999999999999" d="m59.702 224 1.992-1.809"/><path fill="none" stroke-width="1.0374999999999999" d="m62.54 226.987 2.993-2.583-.195 3.295 2.286.466 1.74-1.803M91.094 144.841c.757 1.783-1.266 4.374-4.484 5.739s-6.488 1.021-7.244-.763 1.268-4.373 4.484-5.738 6.488-1.022 7.244.762z"/><path fill="none" stroke-width="1.0374999999999999" d="M90.074 145.343c.5 1.177-1.238 3.06-3.849 4.167s-5.172 1.051-5.674-.127 1.238-3.06 3.85-4.168 5.173-1.051 5.673.128z"/><path fill="none" stroke-width="1.0374999999999999" d="m75.524 137.862.014-.01c13.656-10.658 36.897-4.087 51.478 14.555 14.447 18.47 15.328 42.308 2.063 53.112"/><path fill="none" stroke-width="1.0374999999999999" d="m67.765 144.188.015-.012c13.656-10.656 36.896-4.085 51.478 14.557 14.582 18.64 15.343 42.753 1.688 53.41M151.939 171.891l-.584 9.925 1.363.973.582 3.892-3.89-.779v-2.723l1.945-1.363"/><path fill="none" stroke-width="1.0374999999999999" d="m147.27 182.205 2.334.974-.194 2.724-2.919-.39.779-3.308z"/><path fill="#fff" fill-rule="evenodd" stroke-width="1.0374999999999999" d="M157.09 193.087c-1.084 1.56-3.381 1.378-5.3-.19-1.92-1.57-2.782-3.97-1.699-5.53s3.38-1.377 5.3.192 2.782 3.97 1.699 5.528z"/><path fill="none" stroke-linecap="square" stroke-width="1.0374999999999999" d="m153.84 190.125-4.688 4.179"/><path fill="#fff" fill-rule="evenodd" stroke-width="1.0374999999999999" d="m146.965 182.45 10.277 3.114-.418 1.541-10.278-3.114.419-1.541z"/><path fill="none" stroke-linecap="square" stroke-width="1.0374999999999999" d="m157.29 190.15-.216-2.584"/><path fill="none" stroke-width="1.0374999999999999" d="M144.478 193.626c-.088-.69.29-.702.887.158s.309 1.626-.278 1.08"/><path fill="none" stroke-width="1.0374999999999999" d="M144.705 192.924c2.682-.849 2.34.171 1.074 1.852M49.365 178.05c.07-3.884 1.528-7.119 2.728-8.525 7.708-9.039 23.656-4.323 36.005 9.18s16.724 31.01 9.016 40.049c-2.579 3.022-7.519 4.712-12.697 4.037"/><path fill="none" stroke-width="1.0374999999999999" d="M53.815 173.987c6.822-5.685 18.942-1.272 28.349 9.615 10.03 11.61 13.422 26.475 6.935 33.987-.264.306-.538.593-.819.862M50.59 182.102c-1.014-.073-1.579.143-1.495 1.13 0 0 .26 1.193 1.269 1.213 0 0 1.56-.363 1.73.396s.186 1.585-.818 1.621M46.882 194.27c-.437.449-.658 1.274-.34 1.739 0 0 .504.042.924-.433 0 0 .445-1.412.734-1.106.289.306.625 1.2.222 1.7M69.234 218.894c-.432-.503-1.223-.76-1.665-.398 0 0-.039.577.417 1.059 0 0 1.354.518 1.063.846s-1.145.71-1.627.248M80.22 220.36c1.014.075 1.579-.142 1.495-1.13 0 0-.26-1.192-1.269-1.211 0 0-1.56.361-1.73-.398s-.187-1.585.818-1.621"/><path fill="none" stroke-width="1.0374999999999999" d="M73.626 192.399c-.042.779.378 1.555.993 1.495 0 0 .46-.538.467-1.311 0 0-.661-1.405-.189-1.533s1.417.068 1.443.839M82.004 204.977c-.654.457-.994 1.285-.53 1.744 0 0 .742.034 1.371-.447 0 0 .68-1.42 1.103-1.119s.903 1.189.3 1.696M64.341 183.21c-.436-.637-1.228-.969-1.668-.515 0 0-.034.725.426 1.338 0 0 1.36.663 1.071 1.076s-1.14.885-1.625.296"/><path fill="none" stroke-linecap="square" stroke-width="1.0374999999999999" d="m57.54 204.55-1.821 3.349M61.153 209.175l-3.375 1.069"/><path fill="none" stroke-width="1.0374999999999999" d="M57.588 204.564c.068-.106.155-.199.257-.278.826-.63 2.104.022 3.128 1.3s1.25 2.774.425 3.404a1.38 1.38 0 0 1-.16.104M53.288 210.685l.056-.076c.18-.171.465.014.696.372s.286.774.106.947c-.011.01-.022.02-.035.028M59.512 199.305c.175-.544.41-.964.612-1.135 1.717-1.465 4.472-.145 6.726 2.583s2.826 6 1.109 7.466c-.135.114-.377.219-.685.289"/><path fill="none" stroke-width="1.0374999999999999" d="M56.948 205.878a.907.907 0 0 1 .167-.253c.556-.587 1.541-.112 2.389.914s1.127 2.284.571 2.871a1.141 1.141 0 0 1-.109.099"/><path fill="none" stroke-width="1.0374999999999999" d="M56.27 206.813a.783.783 0 0 1 .134-.218c.449-.508 1.25-.089 1.942.806s.928 1.989.48 2.495a.798.798 0 0 1-.087.085"/><path fill="none" stroke-linecap="square" stroke-width="1.0374999999999999" d="m57.715 210.175-3.076 1.64M55.728 207.825l-2.34 2.636M53.178 210.688l-7.612 6.116M54.353 211.962l-7.61 6.117"/><path fill="none" stroke-width="1.0374999999999999" d="M46.799 217.068c.031 0-2.91.196-3.879.5-1.246.392-.843.997-1.191 1.896-.62 1.597-.614 1.957 1.182 1.71.898-.124 1.458.524 2.151-.47.694-.995 1.737-3.636 1.737-3.636z"/><path fill="none" stroke-width="1.0374999999999999" d="M42.14 218.013c2.026.686 2.694 1.9 2.639 2.838M59.391 204.15l-1.011-.045s-.236-2.655.374-5.467c.505-2.332 1.791-3.497 1.791-3.497l.455-.355c-.629-1.512.983-.765.983-.765 1.556 1.445-.522 1.469-.522 1.469s-1.255 1.116-1.766 3.131-.304 5.529-.304 5.529zM57.686 204.049c-.764-1.603.009-3.832.543-4.289M61.938 207.826l-.132 1.007s2.573.693 5.445.58c2.381-.093 3.753-1.16 3.753-1.16l.427-.387c1.38.883.924-.836.924-.836-1.151-1.787-1.535.259-1.535.259s-1.316 1.044-3.389 1.199-5.494-.662-5.494-.662zM66.248 209.64a2.543 2.543 0 0 1-.18.169c-.535.457-2.787.751-4.225-.583"/><path fill="none" stroke-width="1.0374999999999999" d="M59.619 199.169c1.619-.165 3.625 1.096 5.341 3.173 1.55 1.875 2.304 4.01 2.066 5.635"/><path fill="none" stroke-width="1.0374999999999999" d="M51.678 211.438c-9-12.038-10.107-23.795-4.69-30.025 6.42-7.387 19.703-3.53 29.99 7.506s13.933 25.345 7.513 32.731-19.417 4.505-29.703-6.531c0 0-1.39-1.583-1.49-1.692"/><path fill="none" stroke-width="1.0374999999999999" d="M54.84 207.988c-5.529-8.128-6.253-16.602-3.115-19.952 4.75-5.071 13.482-1.95 21.129 5.657s10.373 17.455 5.623 22.525c-4.173 4.456-14.2 2.93-21.407-5.45"/><path fill="none" stroke-width="1.0374999999999999" d="M57.355 201.096c-2.316-5.003-2.317-9.663-.384-11.741 3.6-3.87 10.22-1.487 16.017 4.32s7.866 13.326 4.266 17.196c-2.769 2.977-7.109 2.472-11.601-.562"/><path fill="none" stroke-linecap="square" stroke-width="1.0374999999999999" d="m54.152 173.887-6.82 5.728M89.015 217.775l-6.821 5.727"/><path fill="none" stroke-width="1.0374999999999999" d="M113.385 55.747c2.516 4.363 2.813 8.98.656 10.225s-6.003-1.318-8.52-5.68-2.813-8.98-.657-10.226c2.157-1.245 6.004 1.319 8.521 5.681z"/><path fill="none" stroke-width="1.0374999999999999" d="M114.897 54.71c2.374 4.127 2.653 8.494.62 9.672s-5.66-1.247-8.033-5.373-2.653-8.495-.619-9.674 5.66 1.247 8.032 5.375z"/><path fill="none" stroke-width="1.0374999999999999" d="M116.144 54.606c1.812 3.21 2.026 6.605.472 7.523s-4.322-.97-6.133-4.18-2.027-6.605-.474-7.521 4.322.97 6.135 4.178z"/><path fill="none" stroke-width="1.0374999999999999" d="m113.215 51.25 3.531-2.27s2.27 0 3.783 2.27.505 3.786.505 3.786l-3.279 2.018M121.54 56.799l-2.017 1.514 1.26 4.288 1.766-1.008-1.009-4.794zM123.053 91.875s3.278-8.581 2.522-14.132-2.018-7.32-3.026-9.592-5.298-1.766-5.298 1.01.758 4.038.758 4.038 2.521 3.786 3.53 7.571 1.513 11.105 1.513 11.105z"/><path fill="none" stroke-width="1.0374999999999999" d="M119.912 66.52c-1.63-.787-4.172.004-4.172 2.141 0 2.777.756 4.039.756 4.039s2.523 3.785 3.531 7.571 1.513 11.105 1.513 11.105 1.349 1.573 1.766.253"/><path fill="none" stroke-linecap="square" stroke-width="1.0374999999999999" d="m122.303 62.1-1.514 4.541M121.54 57.05l-.504-1.769M123.303 91.888l-7.733 35.976"/><path fill="none" stroke-width="1.0374999999999999" d="m111.252 86.775-1.8 1.801-9.543 37.296.901 2.343s-2.701-.72.72.361 6.661 2.883 6.661 2.883l9.363-2.343v-3.784l-8.823-2.882-.9-1.261 4.681-28.289s.54-4.324.18-6.486-1.44-16.035-1.44-16.035 0-2.343 1.26-2.704"/><path fill="none" stroke-width="1.0374999999999999" d="m112.153 81.188 1.8-4.684 3.6-.72M111.078 129.838l-1.622-2.523 11.524-42.341M122.24 92.188l-7.382 32.25-1.08 1.442 1.8.72"/><path fill="none" stroke-linecap="square" stroke-width="1.0374999999999999" d="m115.39 121.2-6.661-3.066M115.215 122.45l-6.661-3.066M116.29 117.413l-7.022-4.508M116.652 115.975l-7.022-4.506M119.353 104.612l-9.723 6.845M118.99 106.6l-9.902 6.664"/><path fill="none" stroke-width="1.0374999999999999" d="M115.752 77.775c1.802 4.504.902 8.286-2.16 11.169"/><path fill="none" stroke-linecap="square" stroke-width="1.0374999999999999" d="m116.478 84.438 4.32 1.618M115.94 85.525l4.14 1.619M113.59 89.3l6.301 13.511M112.69 90.388l6.481 14.23"/><path fill="none" stroke-width="1.0374999999999999" d="M122.596 73.175c0 .741-.325 1.35-.72 1.35s-.72-.609-.72-1.35.325-1.35.72-1.35.72.609.72 1.35zM124.216 80.022c0 .642-.243 1.17-.54 1.17s-.54-.528-.54-1.17.244-1.17.54-1.17.54.528.54 1.17zM115.214 70.293c0 .74-.365 1.35-.81 1.35-.444 0-.81-.61-.81-1.35s.366-1.352.81-1.352.81.61.81 1.352z"/><path fill="none" stroke-linecap="square" stroke-width="1.0374999999999999" d="m117.553 127.862-10.083 2.52"/><path fill="none" stroke-width="1.0374999999999999" d="M109.452 126.957c-3.42-.72-5.17-1.41-5.22-2.162-.18-2.703 2.16-2.703 2.16-2.703l4.862-29.368s.72-5.585 0-8.828c-.722-3.244-1.082-13.514-1.082-13.514s-.18-2.34 1.442-2.882 3.96 1.081 3.96 1.081"/><path fill="none" stroke-linecap="square" stroke-width="1.0374999999999999" d="m112.334 67.5.54-1.083M120.44 61.738l-6.841 5.582M121.877 62.813l-7.382 5.402M119.178 62.813l-1.62-5.41M111.978 60.112l-2.522 4.503M109.628 55.788l-5.582 1.258M110.353 57.95l-4.142 3.06M108.728 53.8l-4.682-1.624M113.953 61.738l-.72 4.14"/><path fill="#fff" fill-rule="evenodd" stroke-width="1.0374999999999999" d="m100.365 63.225 12.255-6.794.754 1.361-12.254 6.795-.755-1.362z"/></g></svg>